<svg width="78" height="30" viewBox="0 0 78 30" fill="none" xmlns="http://www.w3.org/2000/svg">
<path d="M30.4119 7.45455H33.8565L37.1733 13.7188H37.3153L40.6321 7.45455H44.0767L38.7713 16.858V22H35.7173V16.858L30.4119 7.45455ZM48.3434 22.2131C47.2402 22.2131 46.2861 21.9787 45.4812 21.5099C44.681 21.0365 44.0631 20.3783 43.6275 19.5355C43.1919 18.688 42.9741 17.7055 42.9741 16.5881C42.9741 15.4612 43.1919 14.4763 43.6275 13.6335C44.0631 12.786 44.681 12.1278 45.4812 11.6591C46.2861 11.1856 47.2402 10.9489 48.3434 10.9489C49.4466 10.9489 50.3983 11.1856 51.1985 11.6591C52.0034 12.1278 52.6237 12.786 53.0593 13.6335C53.4949 14.4763 53.7127 15.4612 53.7127 16.5881C53.7127 17.7055 53.4949 18.688 53.0593 19.5355C52.6237 20.3783 52.0034 21.0365 51.1985 21.5099C50.3983 21.9787 49.4466 22.2131 48.3434 22.2131ZM48.3576 19.8693C48.8595 19.8693 49.2785 19.7273 49.6147 19.4432C49.9509 19.1544 50.2042 18.7614 50.3746 18.2642C50.5498 17.767 50.6374 17.2012 50.6374 16.5668C50.6374 15.9323 50.5498 15.3665 50.3746 14.8693C50.2042 14.3722 49.9509 13.9792 49.6147 13.6903C49.2785 13.4015 48.8595 13.2571 48.3576 13.2571C47.851 13.2571 47.4248 13.4015 47.0792 13.6903C46.7383 13.9792 46.4802 14.3722 46.305 14.8693C46.1346 15.3665 46.0494 15.9323 46.0494 16.5668C46.0494 17.2012 46.1346 17.767 46.305 18.2642C46.4802 18.7614 46.7383 19.1544 47.0792 19.4432C47.4248 19.7273 47.851 19.8693 48.3576 19.8693ZM58.7056 7.45455V22H55.68V7.45455H58.7056ZM64.2401 22.206C63.544 22.206 62.9238 22.0852 62.3793 21.8438C61.8348 21.5975 61.4039 21.2353 61.0866 20.7571C60.7741 20.2741 60.6179 19.6728 60.6179 18.9531C60.6179 18.3471 60.7292 17.8381 60.9517 17.4261C61.1742 17.0142 61.4773 16.6828 61.8608 16.4318C62.2443 16.1809 62.6799 15.9915 63.1676 15.8636C63.66 15.7358 64.1761 15.6458 64.7159 15.5938C65.3504 15.5275 65.8617 15.4659 66.25 15.4091C66.6383 15.3475 66.92 15.2576 67.0952 15.1392C67.2704 15.0208 67.358 14.8456 67.358 14.6136V14.571C67.358 14.1212 67.2159 13.7732 66.9318 13.527C66.6525 13.2808 66.2547 13.1577 65.7386 13.1577C65.1941 13.1577 64.7609 13.2784 64.4389 13.5199C64.117 13.7566 63.9039 14.0549 63.7997 14.4148L61.0014 14.1875C61.1435 13.5246 61.4228 12.9517 61.8395 12.4688C62.2562 11.9811 62.7936 11.607 63.4517 11.3466C64.1146 11.0814 64.8816 10.9489 65.7528 10.9489C66.3589 10.9489 66.9389 11.0199 67.4929 11.1619C68.0516 11.304 68.5464 11.5241 68.9773 11.8224C69.4129 12.1207 69.7562 12.5043 70.0071 12.973C70.258 13.437 70.3835 13.9934 70.3835 14.642V22H67.5142V20.4872H67.429C67.2538 20.8281 67.0194 21.1288 66.7259 21.3892C66.4323 21.6449 66.0795 21.8461 65.6676 21.9929C65.2557 22.1349 64.7798 22.206 64.2401 22.206ZM65.1065 20.1179C65.5516 20.1179 65.9446 20.0303 66.2855 19.8551C66.6264 19.6752 66.8939 19.4337 67.0881 19.1307C67.2822 18.8277 67.3793 18.4844 67.3793 18.1009V16.9432C67.2846 17.0047 67.1544 17.0616 66.9886 17.1136C66.8277 17.161 66.6454 17.206 66.4418 17.2486C66.2382 17.2865 66.0346 17.322 65.831 17.3551C65.6274 17.3835 65.4427 17.4096 65.277 17.4332C64.9219 17.4853 64.6117 17.5682 64.3466 17.6818C64.0814 17.7955 63.8755 17.9493 63.7287 18.1435C63.5819 18.3329 63.5085 18.5696 63.5085 18.8537C63.5085 19.2656 63.6577 19.5805 63.956 19.7983C64.259 20.0114 64.6425 20.1179 65.1065 20.1179ZM74.4993 22.1847C74.0305 22.1847 73.6281 22.0189 73.2919 21.6875C72.9605 21.3513 72.7947 20.9489 72.7947 20.4801C72.7947 20.0161 72.9605 19.6184 73.2919 19.2869C73.6281 18.9555 74.0305 18.7898 74.4993 18.7898C74.9538 18.7898 75.3516 18.9555 75.6925 19.2869C76.0334 19.6184 76.2038 20.0161 76.2038 20.4801C76.2038 20.7926 76.1233 21.0791 75.9624 21.3395C75.8061 21.5952 75.6001 21.8011 75.3445 21.9574C75.0888 22.1089 74.8071 22.1847 74.4993 22.1847Z" fill="#1C0A0A"/>
<path d="M23.7936 20.3736C23.455 20.035 23.0941 19.7288 22.7131 19.4546C21.9014 20.392 20.9483 21.18 19.8738 21.8003C18.2093 22.7614 16.3163 23.2746 14.3953 23.2867C15.4154 23.6981 16.5151 23.9139 17.6482 23.9139C19.9696 23.9139 22.1521 23.0099 23.7937 21.3684C23.9255 21.2365 23.9996 21.0577 23.9996 20.8712C23.9996 20.6847 23.9255 20.5055 23.7936 20.3736Z" fill="#FF9F66"/>
<path d="M1.28648 19.4546C0.905484 19.7288 0.544594 20.035 0.205969 20.3736C0.0741094 20.5055 0 20.6847 0 20.8712C0 21.0577 0.0741094 21.2365 0.205969 21.3684C1.84748 23.0099 4.02998 23.9139 6.35142 23.9139C7.48448 23.9139 8.58427 23.6981 9.60436 23.2867C7.68319 23.2746 5.79028 22.7614 4.12566 21.8002C3.05119 21.18 2.09812 20.392 1.28648 19.4546Z" fill="#FF9F66"/>
<path d="M4.82974 20.5822C5.99867 21.2572 7.35762 21.7098 8.80648 21.841C6.30293 20.4553 4.94988 18.5315 4.31299 17.4284C3.61259 16.2154 3.1392 14.9011 2.90379 13.5181C2.20437 13.5481 1.50809 13.6525 0.83065 13.8326C0.521275 13.9064 0.29126 14.1849 0.29126 14.5169C0.29126 14.5784 0.299322 14.6396 0.31526 14.699C1.03338 17.3775 2.78679 19.4029 4.82974 20.5822Z" fill="#FF9F66"/>
<path d="M15.1943 21.8412C16.6431 21.71 18.0021 21.2574 19.171 20.5824C21.214 19.4031 22.9674 17.3777 23.6855 14.6992C23.7015 14.6398 23.7095 14.5786 23.7095 14.5171C23.7095 14.1852 23.4795 13.9067 23.1701 13.8328C22.4927 13.6527 21.7964 13.5483 21.097 13.5183C20.8616 14.9013 20.3882 16.2156 19.6878 17.4287C19.0509 18.5318 17.6994 20.4546 15.1943 21.8412Z" fill="#FF9F66"/>
<path d="M8.7793 20.181C8.06881 19.0334 6.96542 16.8304 6.96542 13.8106C6.96542 12.2803 7.24869 10.7918 7.80659 9.37952C7.03813 8.94119 6.21416 8.60032 5.3563 8.37054C4.98111 8.27013 4.59575 8.4926 4.4952 8.86765C3.72776 11.7307 4.26903 14.5425 5.52945 16.7253C6.29469 18.0507 7.39363 19.2618 8.7793 20.181Z" fill="#FF9F66"/>
<path d="M15.2195 20.1815C16.6055 19.2622 17.7047 18.0509 18.47 16.7254C19.7305 14.5424 20.2717 11.7307 19.5043 8.86766C19.4037 8.49262 19.0184 8.2701 18.6432 8.37055C17.7852 8.60033 16.9612 8.9413 16.1926 9.37972C16.7504 10.7919 17.0337 12.2803 17.0337 13.8106C17.0337 16.833 15.9284 19.0366 15.2195 20.1815Z" fill="#FF9F66"/>
<path d="M12.4966 6.25284C12.3647 6.12098 12.1855 6.04688 11.999 6.04688C11.8125 6.04688 11.6337 6.12098 11.5018 6.25284C9.66016 8.09452 8.37152 10.7531 8.37152 13.8105C8.37152 16.8694 9.66161 19.5281 11.5018 21.3682C11.6337 21.5001 11.8129 21.5742 11.9994 21.5742C12.1859 21.5742 12.3647 21.5001 12.4966 21.3682C14.3363 19.5285 15.6269 16.8701 15.6269 13.8105C15.6269 10.7517 14.3373 8.09348 12.4966 6.25284Z" fill="#FF9F66"/>
</svg>
